#!OML:ASF F:\VICON\USERDATA\Patient Classification 1\PLAYGROUND\JustinFriday\JustinFriday.ASF
:FULLY-SPECIFIED
:DEGREES
1
root 4.22859 17.4615 17.9286 26.7559 -62.6469 -22.74
lowerback 14.1274 4.34003 13.6603
upperback 2.73806 7.76909 5.91459
thorax -3.96967 3.56385 -2.55572
lowerneck -8.66179 4.93187 -0.215552
upperneck 16.959 8.13455 -8.35381
head 6.96275 3.15797 -1.95083
rclavicle -9.30312e-014 -7.31528e-014
rhumerus -25.8927 -10.4466 -76.0262
rradius 22.1423
rwrist -7.57011
rhand -9.01521 -9.54937
rfingers 7.12502
rthumb 16.9318 -38.8313
lclavicle -9.30312e-014 -7.31528e-014
lhumerus -33.7377 6.31386 86.2825
lradius 32.2579
lwrist 1.21963
lhand -15.4136 -6.27073
lfingers 7.12502
lthumb 10.7658 23.4334
rfemur -5.52062 -8.48022 32.2007
rtibia 26.9274
rfoot -22.9952 -22.2816
rtoes 7.44268
lfemur -39.6071 8.45042 -8.10132
ltibia 32.2631
lfoot -15.0684 16.9469
ltoes -8.46739
2
root 4.1717 17.4762 17.9788 24.8654 -63.0346 -20.2882
lowerback 13.9294 4.5013 12.2055
upperback 2.70891 7.75593 5.53145
thorax -4.03785 3.58669 -2.18113
lowerneck -8.70708 4.98862 -0.241833
upperneck 16.9981 8.19085 -8.17644
head 6.97668 3.19605 -1.88316
rclavicle 1.43523e-013 -1.27222e-014
rhumerus -25.6905 -9.83712 -76.3169
rradius 22.1097
rwrist -8.20829
rhand -10.4967 -3.97457
rfingers 7.12502
rthumb 15.5053 -33.3729
lclavicle 1.43523e-013 -1.27222e-014
lhumerus -34.0304 6.61163 85.9821
lradius 32.1796
lwrist 1.23378
lhand -15.7629 -6.11439
lfingers 7.12502
lthumb 10.4289 23.607
rfemur -5.3465 -8.2846 30.8531
rtibia 26.4769
rfoot -22.6453 -22.5385
rtoes 7.06346
lfemur -39.9125 7.65496 -9.10099
ltibia 32.008
lfoot -14.2485 19.5813
ltoes -11.7223
3
root 4.10136 17.432 18.0124 28.6683 -61.6662 -25.1152
lowerback 14.3617 4.38309 14.2926
upperback 2.78566 7.95168 6.23787
thorax -3.98128 3.63543 -2.58594
lowerneck -8.80128 4.98899 -0.354988
upperneck 17.0972 8.18539 -7.97605
head 7.01169 3.19705 -1.79832
rclavicle 2.54444e-014 -3.02153e-014
rhumerus -25.6165 -9.05549 -76.7119
rradius 22.4351
rwrist -8.74826
rhand -12.7507 -1.42205
rfingers 7.12502
rthumb 13.3335 -30.9755
lclavicle 2.54444e-014 -3.02153e-014
lhumerus -34.1695 6.82788 85.7684
lradius 31.9452
lwrist 1.42337
lhand -15.9867 -6.19787
lfingers 7.12502
lthumb 10.213 23.5342
rfemur -4.36539 -7.90201 33.7028
rtibia 26.1016
rfoot -22.7675 -23.2797
rtoes 7.34957
lfemur -39.4874 6.99487 -5.63117
ltibia 31.9511
lfoot -14.4249 20.9781
ltoes -10.8769
4
root 4.05782 17.446 18.0847 26.7911 -62.1553 -22.2235
lowerback 13.8638 4.5887 12.762
upperback 2.64014 7.949 5.7718
thorax -4.01168 3.66816 -2.24209
lowerneck -8.70496 5.06681 -0.280339
upperneck 17.0813 8.29497 -8.08166
head 7.00193 3.24867 -1.83666
rclavicle -1.66979e-014 -8.26944e-014
rhumerus -25.4213 -8.63623 -76.9339
rradius 22.4318
rwrist -7.71751
rhand -14.5755 -1.06683
rfingers 7.12502
rthumb 11.5742 -30.7272
lclavicle -1.66979e-014 -8.26944e-014
lhumerus -34.3085 7.20828 85.6008
lradius 31.5943
lwrist 1.60734
lhand -15.9938 -6.36595
lfingers 7.12502
lthumb 10.2062 23.3665
rfemur -4.72553 -8.6744 31.9503
rtibia 25.8308
rfoot -22.2577 -22.8921
rtoes 6.47813
lfemur -40.0521 5.39744 -6.69956
ltibia 31.746
lfoot -13.4631 24.1398
ltoes -12.3463
5
root 4.01212 17.4447 18.154 27.0165 -62.3019 -22.1051
lowerback 13.6866 4.73689 12.5138
upperback 2.58305 8.08806 5.63763
thorax -3.97403 3.74447 -2.25649
lowerneck -8.61093 5.16109 -0.193612
upperneck 17.0135 8.41625 -8.15742
head 6.97549 3.31166 -1.86638
rclavicle 1.31198e-014 2.70347e-014
rhumerus -25.1694 -9.19 -76.905
rradius 22.2668
rwrist -7.02124
rhand -15.3935 -1.31262
rfingers 7.12502
rthumb 10.7852 -31.0157
lclavicle 1.31198e-014 2.70347e-014
lhumerus -34.4779 7.68845 85.3464
lradius 31.2981
lwrist 1.42589
lhand -16.0639 -6.23461
lfingers 7.12502
lthumb 10.1386 23.5011
rfemur -4.64075 -9.06176 31.6382
rtibia 25.4452
rfoot -21.2229 -23.0943
rtoes 3.91995
lfemur -40.2113 4.32997 -6.34499
ltibia 31.8309
lfoot -13.3978 26.7224
ltoes -11.657
6
root 3.96187 17.4453 18.2249 27.4666 -62.4483 -22.3216
lowerback 13.5781 4.8587 12.4927
upperback 2.53562 8.22992 5.43714
thorax -3.92087 3.81951 -2.46401
lowerneck -8.51548 5.22516 -0.243767
upperneck 16.9499 8.45582 -7.8894
head 6.92478 3.35605 -1.77148
rclavicle 9.02482e-014 2.54444e-014
rhumerus -24.9743 -10.1796 -76.9204
rradius 22.1852
rwrist -6.56914
rhand -16.0225 -2.29749
rfingers 7.12502
rthumb 10.1785 -32.0313
lclavicle 9.02482e-014 2.54444e-014
lhumerus -34.6101 8.12807 84.9039
lradius 30.937
lwrist 1.11729
lhand -16.0405 -6.09125
lfingers 7.12502
lthumb 10.1611 23.6434
rfemur -4.62918 -9.11145 31.4802
rtibia 25.4405
rfoot -21.0182 -22.9934
rtoes 3.01388
lfemur -40.2083 3.90508 -5.96867
ltibia 31.5855
lfoot -14.6595 28.1781
ltoes -7.08868
7
root 3.90516 17.4307 18.2882 28.2729 -62.1828 -22.847
lowerback 13.3422 4.9223 12.5855
upperback 2.41266 8.30467 5.39716
thorax -3.89542 3.85498 -2.5456
lowerneck -8.34332 5.2549 -0.292354
upperneck 16.8353 8.45353 -7.69143
head 6.84571 3.37832 -1.70568
rclavicle 6.36111e-015 3.02153e-014
rhumerus -24.7931 -11.0204 -76.8505
rradius 22.0077
rwrist -5.44101
rhand -16.4155 -4.62929
rfingers 7.12502
rthumb 9.79934 -34.3813
lclavicle 6.36111e-015 3.02153e-014
lhumerus -34.7372 8.55527 84.5352
lradius 30.4768
lwrist 0.893629
lhand -16.0192 -6.07975
lfingers 7.12502
lthumb 10.1816 23.6539
rfemur -4.64344 -9.06824 31.7426
rtibia 25.2906
rfoot -21.4886 -22.6927
rtoes 4.10408
lfemur -40.5348 4.16663 -5.75405
ltibia 31.5306
lfoot -17.06 28.6119
ltoes -0.396522
8
root 3.84656 17.423 18.3544 28.209 -62.1127 -22.6914
lowerback 13.303 5.01925 12.251
upperback 2.43109 8.38153 5.37163
thorax -3.88902 3.90044 -2.40246
lowerneck -8.47504 5.26345 -0.257542
upperneck 16.8887 8.49056 -7.80798
head 6.89484 3.38295 -1.74132
rclavicle -1.78906e-014 1.27222e-014
rhumerus -24.7052 -10.0252 -77.1217
rradius 22.2584
rwrist -6.5741
rhand -16.8147 -8.08756
rfingers 7.12502
rthumb 9.41416 -37.8573
lclavicle -1.78906e-014 1.27222e-014
lhumerus -34.8667 8.98954 84.351
lradius 30.1402
lwrist 0.758828
lhand -15.7444 -5.9621
lfingers 7.12502
lthumb 10.4467 23.7583
rfemur -4.26235 -8.47504 31.6198
rtibia 25.0481
rfoot -22.0171 -22.8454
rtoes 5.64239
lfemur -40.4535 4.21825 -5.92087
ltibia 31.5891
lfoot -20.3214 28.658
ltoes 6.86766
9
root 3.78218 17.4251 18.4249 27.3142 -62.0351 -21.7973
lowerback 13.3687 4.98649 11.6424
upperback 2.50002 8.2609 5.22765
thorax -3.93088 3.85368 -2.22402
lowerneck -8.66743 5.40204 0.0740404
upperneck 16.9704 8.69586 -8.08948
head 6.99118 3.47025 -1.8604
rclavicle -6.99722e-014 -1.43125e-014
rhumerus -24.6176 -9.61947 -77.3978
rradius 22.6705
rwrist -7.42256
rhand -16.9721 -12.0377
rfingers 7.12502
rthumb 9.26223 -41.8142
lclavicle -6.99722e-014 -1.43125e-014
lhumerus -35.0648 9.10447 84.1536
lradius 29.952
lwrist 1.10504
lhand -15.3274 -5.77457
lfingers 7.12502
lthumb 10.8489 23.9252
rfemur -3.64237 -7.73728 31.1982
rtibia 24.7336
rfoot -22.4692 -23.4859
rtoes 6.80431
lfemur -40.2238 4.3718 -6.57582
ltibia 31.7698
lfoot -23.1861 27.6911
ltoes 14.0076
10
root 3.71169 17.4225 18.4962 27.8128 -61.4866 -22.3522
lowerback 13.2713 4.89601 11.8186
upperback 2.46053 8.15706 5.27724
thorax -3.9144 3.80015 -2.24378
lowerneck -8.44209 5.5588 0.346565
upperneck 16.7559 8.85841 -8.15649
head 6.90359 3.57565 -1.91776
rclavicle 6.36111e-015 -3.81667e-014
rhumerus -24.6152 -9.49465 -77.5992
rradius 23.0424
rwrist -7.59625
rhand -16.6326 -15.9174
rfingers 7.12502
rthumb 9.58979 -45.6791
lclavicle 6.36111e-015 -3.81667e-014
lhumerus -35.2999 9.08627 84.0033
lradius 29.6602
lwrist 1.49311
lhand -15.2896 -5.81888
lfingers 7.12502
lthumb 10.8854 23.879
rfemur -3.14132 -7.54341 31.6373
rtibia 24.3353
rfoot -22.5289 -24.0178
rtoes 6.22011
lfemur -40.3514 5.63271 -6.86616
ltibia 32.0666
lfoot -25.3139 25.0862
ltoes 22.3705
11
root 3.64737 17.4129 18.5675 28.6899 -61.1212 -23.3026
lowerback 13.2763 5.04798 12.1813
upperback 2.39053 8.41692 5.41865
thorax -3.93168 3.91645 -2.32152
lowerneck -8.03034 5.47438 0.0550379
upperneck 16.4133 8.70889 -7.95291
head 6.69185 3.52869 -1.83252
rclavicle -3.22031e-014 -2.22639e-014
rhumerus -24.4404 -10.0258 -77.3305
rradius 22.9137
rwrist -7.42987
rhand -16.0649 -19.088
rfingers 7.12502
rthumb 10.1375 -48.8238
lclavicle -3.22031e-014 -2.22639e-014
lhumerus -35.5007 8.99686 84.1981
lradius 29.3168
lwrist 1.38695
lhand -15.2972 -5.99778
lfingers 7.12502
lthumb 10.8781 23.7005
rfemur -2.70328 -7.55829 32.093
rtibia 23.9596
rfoot -22.1711 -24.1571
rtoes 5.00155
lfemur -40.4528 6.89748 -6.94317
ltibia 32.3697
lfoot -27.3822 22.3797
ltoes 29.7908
12
root 3.58273 17.4103 18.6489 28.717 -61.1088 -23.197
lowerback 13.2053 5.33611 12.1266
upperback 2.30614 8.79026 5.38394
thorax -3.94182 4.09889 -2.37123
lowerneck -7.80723 5.27969 -0.438107
upperneck 16.3737 8.45493 -7.68926
head 6.59717 3.40531 -1.69803
rclavicle -1.22054e-013 -9.54166e-015
rhumerus -24.7246 -10.516 -76.7428
rradius 23.0776
rwrist -7.89166
rhand -15.5417 -21.5009
rfingers 7.12502
rthumb 10.6422 -51.2114
lclavicle -1.22054e-013 -9.54166e-015
lhumerus -35.6187 8.86119 84.4791
lradius 28.9326
lwrist 0.902028
lhand -15.2005 -6.26612
lfingers 7.12502
lthumb 10.9714 23.4272
rfemur -2.35418 -7.48394 31.8383
rtibia 23.6842
rfoot -21.8224 -24.2484
rtoes 4.32147
lfemur -40.4022 7.24158 -7.27005
ltibia 32.5996
lfoot -23.5106 25.4492
ltoes 19.8497
13
root 3.51725 17.423 18.7284 27.6495 -61.2241 -21.9444
lowerback 13.2978 5.53792 11.441
upperback 2.20215 8.9972 5.20155
thorax -4.1562 4.20137 -2.24896
lowerneck -7.68797 5.15308 -0.933812
upperneck 16.5671 8.30329 -7.36282
head 6.59832 3.32255 -1.52999
rclavicle -7.23576e-014 -2.54444e-014
rhumerus -25.0485 -11.3394 -76.26
rradius 23.4554
rwrist -7.78324
rhand -15.0016 -23.5463
rfingers 7.12502
rthumb 11.1632 -53.2294
lclavicle -7.23576e-014 -2.54444e-014
lhumerus -35.8261 9.11788 84.472
lradius 28.5766
lwrist 0.121108
lhand -15.2834 -6.75394
lfingers 7.12502
lthumb 10.8914 22.9436
rfemur -2.00537 -7.08814 31.0588
rtibia 23.5863
rfoot -21.9801 -24.6161
rtoes 4.95679
lfemur -40.2129 7.39937 -8.20281
ltibia 32.6763
lfoot -26.298 23.5383
ltoes 28.189
